HIERARCHY
ROOT reference
{
  OFFSET -65.3212 -1.93545 -120.338
  CHANNELS 6 Xposition Yposition Zposition Zrotation Xrotation Yrotation
  JOINT Hips
  {
    OFFSET 0 78.7191 0
    CHANNELS 3 Zrotation Xrotation Yrotation
    JOINT Chest
    {
      OFFSET 0 8.7983 -4.7612
      CHANNELS 3 Zrotation Xrotation Yrotation
      JOINT Chest2
      {
        OFFSET 0 8.0291 0.4195
        CHANNELS 3 Zrotation Xrotation Yrotation
        JOINT Chest3
        {
          OFFSET 0 9.9351 -2.2114
          CHANNELS 3 Zrotation Xrotation Yrotation
          JOINT Neck
          {
            OFFSET 0 22.3885 -0.4656
            CHANNELS 3 Zrotation Xrotation Yrotation
            JOINT Head
            {
              OFFSET -0.0001 12.643 3.4389
              CHANNELS 3 Zrotation Xrotation Yrotation
              End Site
              {
                OFFSET 0.0001 17.6655 0.5274
              }
            }
          }
          JOINT LeftCollar
          {
            OFFSET 2.2603 21.606 7.4023
            CHANNELS 3 Zrotation Xrotation Yrotation
            JOINT LeftShoulder
            {
              OFFSET 13.5163 -1.1332 -5.0146
              CHANNELS 3 Zrotation Xrotation Yrotation
              JOINT LeftElbow
              {
                OFFSET -0.0995 -28.05 -0.2431
                CHANNELS 3 Zrotation Xrotation Yrotation
                JOINT LeftWrist
                {
                  OFFSET 0.0679 -23.3996 -0.1402
                  CHANNELS 3 Zrotation Xrotation Yrotation
                  JOINT LeftFinger1
                  {
                    OFFSET 0.7932 -9.069 2.5189
                    CHANNELS 3 Zrotation Xrotation Yrotation
                    JOINT LeftFinger11
                    {
                      OFFSET -0.8272 -3.3923 0.5977
                      CHANNELS 3 Zrotation Xrotation Yrotation
                      JOINT LeftFinger12
                      {
                        OFFSET -0.5649 -2.3158 0.4082
                        CHANNELS 3 Zrotation Xrotation Yrotation
                        End Site
                        {
                          OFFSET -0.4919 -1.6479 0.2673
                        }
                      }
                    }
                  }
                  JOINT LeftFinger2
                  {
                    OFFSET 0.9159 -9.2044 0.2193
                    CHANNELS 3 Zrotation Xrotation Yrotation
                    JOINT LeftFinger21
                    {
                      OFFSET 0.0117 -4.1944 -0.0248
                      CHANNELS 3 Zrotation Xrotation Yrotation
                      JOINT LeftFinger22
                      {
                        OFFSET 0.0071 -2.3249 -0.0142
                        CHANNELS 3 Zrotation Xrotation Yrotation
                        End Site
                        {
                          OFFSET -0.1475 -2.0882 0.0028
                        }
                      }
                    }
                  }
                  JOINT LeftFinger3
                  {
                    OFFSET 0.6113 -8.7231 -2.0637
                    CHANNELS 3 Zrotation Xrotation Yrotation
                    JOINT LeftFinger31
                    {
                      OFFSET -0.1927 -3.8059 -0.2383
                      CHANNELS 3 Zrotation Xrotation Yrotation
                      JOINT LeftFinger32
                      {
                        OFFSET -0.1091 -2.1688 -0.1362
                        CHANNELS 3 Zrotation Xrotation Yrotation
                        End Site
                        {
                          OFFSET -0.2358 -1.9176 -0.0906
                        }
                      }
                    }
                  }
                  JOINT LeftFinger4
                  {
                    OFFSET -0.6151 -8.0947 -3.5641
                    CHANNELS 3 Zrotation Xrotation Yrotation
                    JOINT LeftFinger41
                    {
                      OFFSET -0.4882 -2.341 -0.6462
                      CHANNELS 3 Zrotation Xrotation Yrotation
                      JOINT LeftFinger42
                      {
                        OFFSET -0.3575 -1.7167 -0.4742
                        CHANNELS 3 Zrotation Xrotation Yrotation
                        End Site
                        {
                          OFFSET -0.4187 -1.5237 -0.3496
                        }
                      }
                    }
                  }
                  JOINT LeftFinger0
                  {
                    OFFSET -1.42 -1.8761 1.4223
                    CHANNELS 3 Zrotation Xrotation Yrotation
                    JOINT LeftFinger01
                    {
                      OFFSET -1.1471 -3.4929 2.6334
                      CHANNELS 3 Zrotation Xrotation Yrotation
                      JOINT LeftFinger02
                      {
                        OFFSET -0.823 -2.3 1.6571
                        CHANNELS 3 Zrotation Xrotation Yrotation
                        End Site
                        {
                          OFFSET -0.5822 -1.6914 1.1582
                        }
                      }
                    }
                  }
                }
              }
            }
          }
          JOINT RightCollar
          {
            OFFSET -2.2603 21.606 7.4023
            CHANNELS 3 Zrotation Xrotation Yrotation
            JOINT RightShoulder
            {
              OFFSET -13.5187 -1.1334 -5.0155
              CHANNELS 3 Zrotation Xrotation Yrotation
              JOINT RightElbow
              {
                OFFSET 0.0994 -28.0499 -0.2431
                CHANNELS 3 Zrotation Xrotation Yrotation
                JOINT RightWrist
                {
                  OFFSET -0.0679 -23.3996 -0.1402
                  CHANNELS 3 Zrotation Xrotation Yrotation
                  JOINT RightFinger1
                  {
                    OFFSET -0.7932 -9.0691 2.5189
                    CHANNELS 3 Zrotation Xrotation Yrotation
                    JOINT RightFinger11
                    {
                      OFFSET 0.8272 -3.3923 0.5977
                      CHANNELS 3 Zrotation Xrotation Yrotation
                      JOINT RightFinger12
                      {
                        OFFSET 0.565 -2.3158 0.4082
                        CHANNELS 3 Zrotation Xrotation Yrotation
                        End Site
                        {
                          OFFSET 0.4919 -1.6479 0.2673
                        }
                      }
                    }
                  }
                  JOINT RightFinger2
                  {
                    OFFSET -0.916 -9.2044 0.2193
                    CHANNELS 3 Zrotation Xrotation Yrotation
                    JOINT RightFinger21
                    {
                      OFFSET -0.0117 -4.1944 -0.0248
                      CHANNELS 3 Zrotation Xrotation Yrotation
                      JOINT RightFinger22
                      {
                        OFFSET -0.0071 -2.3249 -0.0142
                        CHANNELS 3 Zrotation Xrotation Yrotation
                        End Site
                        {
                          OFFSET 0.1475 -2.0882 0.0028
                        }
                      }
                    }
                  }
                  JOINT RightFinger3
                  {
                    OFFSET -0.6113 -8.7231 -2.0637
                    CHANNELS 3 Zrotation Xrotation Yrotation
                    JOINT RightFinger31
                    {
                      OFFSET 0.1927 -3.8059 -0.2383
                      CHANNELS 3 Zrotation Xrotation Yrotation
                      JOINT RightFinger32
                      {
                        OFFSET 0.1091 -2.1688 -0.1362
                        CHANNELS 3 Zrotation Xrotation Yrotation
                        End Site
                        {
                          OFFSET 0.2358 -1.9176 -0.0906
                        }
                      }
                    }
                  }
                  JOINT RightFinger4
                  {
                    OFFSET 0.6151 -8.0947 -3.564
                    CHANNELS 3 Zrotation Xrotation Yrotation
                    JOINT RightFinger41
                    {
                      OFFSET 0.4882 -2.341 -0.6462
                      CHANNELS 3 Zrotation Xrotation Yrotation
                      JOINT RightFinger42
                      {
                        OFFSET 0.3574 -1.7166 -0.4742
                        CHANNELS 3 Zrotation Xrotation Yrotation
                        End Site
                        {
                          OFFSET 0.4187 -1.5237 -0.3496
                        }
                      }
                    }
                  }
                  JOINT RightFinger0
                  {
                    OFFSET 1.4199 -1.8761 1.4221
                    CHANNELS 3 Zrotation Xrotation Yrotation
                    JOINT RightFinger01
                    {
                      OFFSET 1.1472 -3.4929 2.6336
                      CHANNELS 3 Zrotation Xrotation Yrotation
                      JOINT RightFinger02
                      {
                        OFFSET 0.8229 -2.3 1.6571
                        CHANNELS 3 Zrotation Xrotation Yrotation
                        End Site
                        {
                          OFFSET 0.5822 -1.6914 1.1582
                        }
                      }
                    }
                  }
                }
              }
            }
          }
        }
      }
    }
    JOINT RightHip
    {
      OFFSET -9.412 3.9771 -0.7758
      CHANNELS 3 Zrotation Xrotation Yrotation
      JOINT RightKnee
      {
        OFFSET -0.7531 -40.938 0
        CHANNELS 3 Zrotation Xrotation Yrotation
        JOINT RightAnkle
        {
          OFFSET 0 -40.1986 0
          CHANNELS 3 Zrotation Xrotation Yrotation
          JOINT RightToe
          {
            OFFSET 0 -4.4182 9.239
            CHANNELS 3 Zrotation Xrotation Yrotation
            End Site
            {
              OFFSET 0 0 6.1981
            }
          }
        }
      }
    }
    JOINT LeftHip
    {
      OFFSET 9.4119 3.9773 -0.7758
      CHANNELS 3 Zrotation Xrotation Yrotation
      JOINT LeftKnee
      {
        OFFSET 0.7532 -40.9383 0
        CHANNELS 3 Zrotation Xrotation Yrotation
        JOINT LeftAnkle
        {
          OFFSET 0 -40.1986 0
          CHANNELS 3 Zrotation Xrotation Yrotation
          JOINT LeftToe
          {
            OFFSET 0 -4.4182 9.239
            CHANNELS 3 Zrotation Xrotation Yrotation
            End Site
            {
              OFFSET 0 0 6.1981
            }
          }
        }
      }
    }
  }
}
MOTION
Frames:	8
Frame Time:	0.0333333
34.7369 -58.4896 -30.5706 0 0 -0 16.4383 6.03158 -62.3938 -2.13446 -0.91698 -0.153203 -4.27218 -1.8276 -0.340582 -4.27219 -1.82759 -0.340593 1.18264 -17.249 33.3614 -1.54895 8.47499 17.0952 4.03008 -2.98715 -28.4707 15.8869 -43.0618 6.64027 -17.1218 -46.3842 -8.02456 10.5583 6.01075 156.9 4.75134 -7.63707 -2.89423 -0.117402 -1.6081 -0.619919 -1.89951 1.18328 -0.0823134 2.11015 -0.595131 -2.87198 -4.14361 2.60813 -0.314184 7.67551 -4.70587 1.06807 4.89501 1.96999 -0.256563 -4.6815 3.24658 -0.489124 6.77799 -4.55831 1.16224 2.48154 11.3302 2.382 -0.0739415 -2.188 1.85505 -3.82408 2.61133 -0.549562 -15.4506 -4.42376 -9.7074 -2.57876 -0.226138 0.326929 -4.05303 -5.46721 0.937726 -32.8942 -0.522271 21.367 -61.0429 -46.0746 -41.6608 -36.2033 -64.8958 -67.6408 -4.39731 10.0679 -48.8872 11.6477 14.2793 0.992783 44.2763 13.1569 -6.11042 45.4054 13.4037 -6.38644 6.63247 3.30243 -1.26744 52.3752 15.6203 -6.40191 15.3504 5.19873 -0.333469 12.9351 7.01933 -5.55431 21.116 8.14438 -0.317243 22.7005 8.73509 -0.460748 -8.9557 3.95866 -6.76162 25.5475 9.6634 0.010655 15.2476 5.79323 0.528982 9.91524 -19.9007 48.0805 1.41317 -0.442836 -1.52284 -7.19736 14.537 5.60456 -71.5426 -41.0307 -45.2104 166.784 26.464 -150.456 -3.28844 -62.7893 -0.0800956 9.57666 -18.8571 3.24753 77.4309 -45.6801 79.9877 179.724 31.6249 178.775 -3.538 -65.6295 -11.0991 2.85934 -11.2711 0.480098 
33.5211 -57.9491 -30.1006 0 0 -0 16.9608 6.41871 -62.1517 -2.26252 -1.4054 -0.048687 -4.52829 -2.8078 -0.152925 -4.52828 -2.8078 -0.152927 1.17917 -15.8446 33.9114 -2.14446 9.3133 16.9915 4.29189 -3.28004 -28.0969 12.8284 -39.7471 4.92342 -20.1152 -47.488 -9.67986 12.7678 5.09086 156.019 4.75135 -7.63707 -2.89423 -0.11742 -1.60809 -0.619916 -1.89952 1.18329 -0.0823118 2.11014 -0.59513 -2.87195 -4.14363 2.60815 -0.314199 7.67234 -4.70398 1.0675 4.89501 1.96997 -0.256571 -4.68222 3.24712 -0.489156 6.778 -4.55833 1.16225 2.48153 11.3302 2.38201 -0.0739593 -2.18797 1.85506 -3.82492 2.61188 -0.549595 -15.4506 -4.42375 -9.70742 -2.57875 -0.226144 0.326927 -4.05305 -5.46719 0.937743 -32.9599 -0.521165 21.3503 -52.5084 -43.8463 -35.8871 -42.3383 -70.0872 -77.0156 -6.9861 9.71056 -44.228 11.6477 14.2793 0.992854 44.2763 13.1569 -6.11042 45.4054 13.4037 -6.38642 6.63247 3.30244 -1.26738 52.3752 15.6203 -6.4019 15.3504 5.19872 -0.333407 12.9351 7.01933 -5.5543 21.116 8.14437 -0.317197 22.7006 8.73508 -0.460757 -8.95569 3.95867 -6.76163 25.5475 9.66338 0.0105187 15.2476 5.79322 0.529005 9.91527 -19.9007 48.0806 1.41317 -0.442825 -1.52297 -7.19736 14.5369 5.60458 -68.0624 -40.9584 -42.0581 166.502 27.2473 -150.688 -3.87936 -61.6894 -1.7828 13.2521 -20.8166 4.00664 74.446 -45.8548 76.1331 179.708 32.393 179.004 -5.04767 -65.2716 -11.7927 2.92083 -11.6976 0.502066 
32.0375 -57.3115 -29.5182 0 0 -0 16.9812 6.54336 -61.7567 -2.38472 -1.76074 0.0666307 -4.77078 -3.52278 0.0599054 -4.77078 -3.52278 0.0599029 1.18132 -14.6564 34.5469 -2.81663 10.4717 17.2071 4.46917 -3.47934 -27.7563 10.2862 -36.2095 3.5886 -23.6083 -48.6227 -11.8894 14.913 4.09885 155.228 4.75135 -7.6371 -2.8942 -0.11743 -1.6081 -0.619909 -1.8995 1.18327 -0.0823089 2.11013 -0.595146 -2.87193 -4.14361 2.60815 -0.314145 7.66916 -4.70206 1.06694 4.89501 1.96995 -0.256547 -4.6829 3.2476 -0.489215 6.77801 -4.55833 1.16223 2.48153 11.3302 2.38207 -0.0739654 -2.18796 1.85505 -3.82574 2.6124 -0.549649 -15.4505 -4.42374 -9.70749 -2.57875 -0.226127 0.326939 -4.05303 -5.46719 0.937777 -33.038 -0.519828 21.3308 -44.4072 -40.731 -30.6347 -52.2258 -75.386 -90.632 -9.83202 8.64936 -39.0314 11.6477 14.2793 0.99268 44.2764 13.1569 -6.11041 45.4054 13.4038 -6.38637 6.63248 3.30242 -1.26754 52.3752 15.6203 -6.40187 15.3504 5.19874 -0.333535 12.9351 7.01934 -5.55432 21.116 8.14434 -0.317147 22.7006 8.73509 -0.460744 -8.95569 3.95866 -6.76164 25.5475 9.6634 0.010528 15.2476 5.79321 0.528993 9.91523 -19.9007 48.0804 1.41318 -0.442807 -1.52296 -7.19737 14.5369 5.60459 -63.8131 -40.0958 -38.083 166.079 28.3821 -151.005 -3.01373 -60.6629 -2.18205 16.4891 -22.769 4.76371 70.6944 -45.6285 71.3894 179.681 33.3178 179.185 -4.72372 -64.4754 -10.4946 2.33449 -11.917 0.374494 
30.2508 -56.5943 -28.8473 0 0 -0 16.2778 6.49563 -61.2603 -2.47422 -1.85314 0.132937 -4.94803 -3.71028 0.185821 -4.94805 -3.71029 0.185818 1.19737 -14.3417 35.3728 -3.27875 11.5323 17.6496 4.44204 -3.4694 -27.3013 9.09122 -32.9306 3.00053 -28.1009 -49.6884 -14.6938 17.221 3.0267 154.299 4.75135 -7.63709 -2.89417 -0.117389 -1.60809 -0.61988 -1.89952 1.18329 -0.0822992 2.11013 -0.595147 -2.87186 -4.14362 2.60817 -0.314146 7.66598 -4.70017 1.06635 4.895 1.96997 -0.256522 -4.68361 3.24807 -0.489282 6.778 -4.55829 1.16225 2.48149 11.3302 2.38217 -0.0739697 -2.18797 1.85506 -3.82661 2.613 -0.549687 -15.4506 -4.42368 -9.70757 -2.57876 -0.226123 0.326953 -4.05302 -5.4672 0.937843 -33.1281 -0.518428 21.309 -37.5869 -37.1538 -26.4473 -70.8139 -80.0972 -113.194 -12.6519 6.59805 -33.8959 11.6478 14.2793 0.992674 44.2764 13.157 -6.1104 45.4054 13.4037 -6.38646 6.6325 3.30242 -1.26755 52.3752 15.6203 -6.40188 15.3504 5.19876 -0.333533 12.9351 7.01934 -5.55433 21.116 8.14438 -0.317216 22.7006 8.73509 -0.460735 -8.9557 3.95865 -6.76163 25.5475 9.66341 0.0105414 15.2476 5.79321 0.528995 9.91524 -19.9007 48.0804 1.41319 -0.442831 -1.52294 -7.1974 14.5369 5.60466 -58.6339 -38.6 -33.3195 165.52 29.8158 -151.236 -2.33831 -59.1816 -2.89247 21.7496 -24.4979 5.41389 66.0748 -44.9244 65.3757 179.65 34.3772 179.254 -2.79925 -63.3816 -7.24974 -0.2804 -13.9399 -0.168336 
28.105 -55.7738 -28.1796 0 0 -0 13.9939 6.14626 -60.4879 -2.4997 -1.57278 0.0639729 -5.00048 -3.14686 0.0592756 -5.00049 -3.14686 0.0592818 1.2247 -14.2472 36.6194 -3.28574 12.3101 17.7791 4.3295 -3.37977 -26.6832 8.7967 -29.5293 3.17921 -32.8712 -50.7092 -17.5682 19.3843 1.78457 152.963 4.75132 -7.63708 -2.8941 -0.117375 -1.60808 -0.619865 -1.89952 1.18327 -0.0823045 2.11013 -0.595128 -2.87201 -4.1436 2.60817 -0.314084 7.66278 -4.69825 1.06579 4.89497 1.96998 -0.256413 -4.68431 3.24856 -0.489323 6.778 -4.55823 1.16227 2.48155 11.3302 2.38199 -0.0739895 -2.18793 1.85507 -3.82744 2.61356 -0.549724 -15.4506 -4.42378 -9.70738 -2.57875 -0.226133 0.326969 -4.05305 -5.4672 0.937723 -33.2295 -0.517067 21.2851 -31.9568 -33.8381 -22.9962 -101.597 -83.2895 -147.316 -14.8566 3.18586 -30.1615 11.6478 14.2793 0.992674 44.2764 13.157 -6.1104 45.4054 13.4037 -6.38647 6.6325 3.30242 -1.26754 52.3752 15.6204 -6.40188 15.3504 5.19876 -0.333508 12.9351 7.01933 -5.55433 21.116 8.14442 -0.31723 22.7006 8.73509 -0.460718 -8.95568 3.95866 -6.76165 25.5475 9.66341 0.0105634 15.2476 5.79321 0.528992 9.91524 -19.9007 48.0804 1.41319 -0.44282 -1.52295 -7.19745 14.5369 5.60476 -51.8539 -35.8793 -26.761 164.754 31.6157 -151.048 -1.08597 -56.9993 -2.11802 29.4958 -26.6678 6.24692 60.9924 -43.3421 57.4188 179.619 35.6214 179.214 -0.347462 -61.5905 -3.54394 -4.13457 -16.1161 -0.890644 
25.9325 -54.8725 -27.611 0 0 -0 12.552 6.06573 -59.8513 -2.58901 -1.3486 0.0519974 -5.17894 -2.69816 0.0430057 -5.17894 -2.69816 0.0430094 1.22616 -13.6352 36.9711 -3.71052 12.3701 18.0092 4.22823 -3.28933 -26.3835 8.57305 -27.1556 3.34767 -35.9842 -51.026 -19.4378 20.7179 0.301112 151.769 4.75134 -7.63706 -2.89425 -0.117415 -1.60809 -0.619824 -1.89953 1.18329 -0.0823114 2.11013 -0.595104 -2.87196 -4.14359 2.60818 -0.314025 7.66277 -4.69824 1.0658 4.895 1.96999 -0.256563 -4.68502 3.24905 -0.489404 6.77804 -4.55819 1.16232 2.48153 11.3302 2.38201 -0.0739532 -2.18792 1.85508 -3.82828 2.61409 -0.549761 -15.4506 -4.42376 -9.7074 -2.57878 -0.226148 0.327024 -4.05304 -5.46721 0.937716 -33.3412 -0.515604 21.2596 -27.3308 -30.3467 -20.4317 -141.299 -83.5792 170.223 -16.2075 -0.872811 -27.1634 11.6477 14.2793 0.992677 44.2763 13.1569 -6.11038 45.4054 13.4037 -6.38647 6.63248 3.30242 -1.26755 52.3752 15.6204 -6.40185 15.3504 5.19875 -0.333516 12.9351 7.01935 -5.55434 21.116 8.14438 -0.317208 22.7006 8.73507 -0.460702 -8.95571 3.95866 -6.76166 25.5475 9.66338 0.010574 15.2476 5.7932 0.529009 9.91525 -19.9007 48.0804 1.41319 -0.44283 -1.52292 -7.19735 14.537 5.60455 -46.4756 -33.184 -21.1526 163.928 33.4887 -150.275 -0.915522 -53.4486 0.0639776 31.8252 -33.7978 5.55621 56.8961 -41.868 50.7561 179.623 37.2565 179.073 0.440735 -59.5287 -1.57838 -8.48308 -17.9251 -1.50434 
23.3433 -53.983 -26.9595 0 0 -0 9.61379 5.50464 -59.1602 -2.63232 -0.85967 -0.0539777 -5.26632 -1.71593 -0.147424 -5.26634 -1.71594 -0.147429 1.22232 -12.5928 37.2666 -3.65056 12.3659 18.497 4.15733 -3.22625 -26.1804 9.19932 -24.4195 4.23427 -39.1868 -51.2887 -21.6154 22.0655 -1.05206 151.168 4.75135 -7.63707 -2.89424 -0.117408 -1.60807 -0.619745 -1.89952 1.1833 -0.0823031 2.11013 -0.595106 -2.87199 -4.14362 2.60814 -0.314195 7.6628 -4.69826 1.0658 4.89499 1.97 -0.256569 -4.6857 3.24951 -0.489426 6.77799 -4.55833 1.16223 2.48154 11.3302 2.38201 -0.0739365 -2.1879 1.85511 -3.82911 2.61466 -0.549805 -15.4506 -4.42375 -9.70742 -2.5788 -0.226087 0.327075 -4.05304 -5.46721 0.937734 -33.4628 -0.51425 21.2328 -23.5351 -27.9324 -18.0301 -171.634 -83.2838 138.601 -16.7179 -5.59824 -26.2525 11.6477 14.2793 0.992677 44.2764 13.157 -6.11037 45.4054 13.4037 -6.38647 6.63249 3.30244 -1.26753 52.3752 15.6204 -6.40186 15.3504 5.19875 -0.333511 12.9351 7.01935 -5.55432 21.116 8.14439 -0.317211 22.7006 8.73505 -0.460673 -8.95569 3.95866 -6.76164 25.5475 9.66341 0.0105894 15.2476 5.79317 0.529048 9.91526 -19.9007 48.0805 1.41318 -0.442821 -1.52292 -7.19737 14.537 5.60455 -40.8571 -28.6519 -15.5659 162.951 35.686 -149.445 -1.55658 -49.4392 2.10357 32.6327 -41.8894 4.81032 52.996 -38.3093 43.2861 179.599 39.1637 178.933 1.10548 -57.6451 -0.0647212 -12.1491 -19.565 -1.911 
20.6783 -53.0944 -26.3168 0 0 -0 6.76571 4.78167 -58.5284 -2.7182 -0.438245 -0.197274 -5.4381 -0.866638 -0.415109 -5.43813 -0.86664 -0.415131 1.20903 -11.1807 37.2379 -3.49995 12.3392 19.0191 4.14402 -3.22568 -25.9048 10.2844 -21.4876 5.23164 -42.8482 -51.3253 -24.4759 23.5748 -2.05813 151.377 4.85892 -7.70954 -2.87412 -0.0814178 -1.15559 -0.432409 -2.82824 1.76287 -0.108299 2.27134 -0.702783 -2.85444 -4.85337 3.05723 -0.349131 6.73383 -4.14089 0.903981 4.9161 1.95831 -0.254098 -5.09072 3.53254 -0.519324 6.22638 -4.19587 1.04827 2.37481 11.394 2.38657 -0.07334 -2.15523 1.82985 -3.93008 2.68425 -0.561967 -15.4506 -4.42373 -9.70747 -2.57875 -0.226138 0.326921 -4.05304 -5.46721 0.937726 -33.5933 -0.512933 21.2051 -20.2551 -26.25 -15.726 162.401 -82.7105 112.362 -16.9343 -10.257 -26.5356 11.6477 14.2793 0.992667 44.2764 13.157 -6.11038 45.4054 13.4037 -6.38645 6.63248 3.30244 -1.2675 52.3752 15.6204 -6.40187 15.3504 5.19872 -0.333483 12.9351 7.01936 -5.55431 21.116 8.14439 -0.317201 22.7006 8.73504 -0.460612 -8.95571 3.95866 -6.76166 25.5475 9.6634 0.0106449 15.2476 5.79317 0.529083 9.91527 -19.9007 48.0805 1.41315 -0.442806 -1.52289 -7.19736 14.5369 5.60455 -36.4544 -23.9457 -11.8573 162.159 37.5773 -149.307 -0.00014192 -46.5947 3.71215 34.0907 -43.2177 3.63341 49.9028 -34.3232 37.026 179.607 41.3187 178.87 1.884 -55.6965 1.75697 -16.4235 -20.4448 -1.94157 
